<svg xmlns="http://www.w3.org/2000/svg" xmlns:xlink="http://www.w3.org/1999/xlink" width="147" height="127" viewBox="0 0 147 127">
  <defs>
    <clipPath id="clip-path">
      <rect id="Rectangle_462254" data-name="Rectangle 462254" width="102" height="86" rx="12" transform="translate(0 0.329)" fill="#513998"/>
    </clipPath>
  </defs>
  <g id="Group_1366138" data-name="Group 1366138" transform="translate(-915 -6934)">
    <g id="Group_1366060" data-name="Group 1366060" transform="translate(0 -3104)">
      <g id="Group_1365861" data-name="Group 1365861" transform="translate(0 6168)">
        <g id="Group_1365691" data-name="Group 1365691" transform="translate(-0.051 1805)">
          <g id="Group_1365620" data-name="Group 1365620" transform="translate(0 -12106)">
            <g id="Group_1365598" data-name="Group 1365598" transform="translate(0 8712)">
              <rect id="Rectangle_462254-2" data-name="Rectangle 462254" width="147" height="127" rx="12" transform="translate(915.051 5459)" fill="#85eceb"/>
            </g>
          </g>
        </g>
      </g>
    </g>
    <g id="Group_1366061" data-name="Group 1366061" transform="translate(24.167 -3083.393)">
      <g id="Group_1365861-2" data-name="Group 1365861" transform="translate(913.833 10038.063)">
        <g id="Group_1365691-2" data-name="Group 1365691" transform="translate(0 0)">
          <g id="Group_1365620-2" data-name="Group 1365620">
            <g id="Group_1365598-2" data-name="Group 1365598">
              <g id="Mask_Group_1099510" data-name="Mask Group 1099510" clip-path="url(#clip-path)">
                <g id="_7" data-name="7" transform="translate(5.928 -1.028)">
                  <g id="Group_1366101" data-name="Group 1366101">
                    <g id="Group_1366100" data-name="Group 1366100">
                      <path id="Path_1337206" data-name="Path 1337206" d="M67.96,77.644H37.381A6.933,6.933,0,0,1,30.51,69.8l9.7-30.973H64.993l9.836,30.945a6.933,6.933,0,0,1-6.868,7.877Z" fill="#a0815c"/>
                      <rect id="Rectangle_462260" data-name="Rectangle 462260" width="30.503" height="5.546" rx="2.773" transform="translate(37.436 33.276)" fill="#ff9811"/>
                      <path id="Path_1337207" data-name="Path 1337207" d="M65.987,23.368l-2.208,9.908H59.62V19.411h2.936a3.466,3.466,0,0,1,3.432,3.957Z" fill="#5f4d37"/>
                      <path id="Path_1337208" data-name="Path 1337208" d="M59.62,17.331V33.276H41.6l-2.208-9.908a3.466,3.466,0,0,1,3.432-3.957H51.3v-2.08a3.465,3.465,0,0,1,3.466-3.466h1.387a3.465,3.465,0,0,1,3.466,3.466Z" fill="#a0815c"/>
                      <circle id="Ellipse_12871" data-name="Ellipse 12871" cx="11.092" cy="11.092" r="11.092" transform="translate(41.595 47.141)" fill="#ffda44"/>
                    </g>
                    <path id="Path_1337209" data-name="Path 1337209" d="M43.3,61l-5.861.012H22.19V74.878H26.6a2.772,2.772,0,0,1,1.946.8l9.647,9.5a2.776,2.776,0,0,0,1.941.792H70.718A2.773,2.773,0,0,0,73.491,83.2V80.424a2.773,2.773,0,0,0-2.773-2.773H56.99a2.774,2.774,0,0,0-.35-3.5L45.348,61.895A2.766,2.766,0,0,0,43.3,61Z" fill="#ffdaaa"/>
                    <rect id="Rectangle_462261" data-name="Rectangle 462261" width="6.933" height="22.184" transform="translate(15.252 56.847)" fill="#5aaae7"/>
                    <circle id="Ellipse_12872" data-name="Ellipse 12872" cx="13.865" cy="13.865" r="13.865" transform="translate(16.638 2.773)" fill="#91cc04"/>
                  </g>
                  <g id="Group_1366102" data-name="Group 1366102">
                    <path id="Path_1337210" data-name="Path 1337210" d="M73.253,77.13A8.305,8.305,0,0,0,76.2,69.578a1.306,1.306,0,0,0-.052-.231L66.785,39.881a4.16,4.16,0,0,0-1.279-7.976l1.835-8.236c.007-.035.014-.069.019-.106a4.853,4.853,0,0,0-4.8-5.539H61.006v-.693a4.858,4.858,0,0,0-4.853-4.853H54.767a4.858,4.858,0,0,0-4.853,4.853v.693H45.691c.042-.458.064-.919.064-1.387a15.266,15.266,0,1,0-6.5,12.487l.619,2.78a4.158,4.158,0,0,0-1.425,7.91l-6.2,19.811H23.571v-2.78a1.387,1.387,0,0,0-1.387-1.387H15.252a1.387,1.387,0,0,0-1.387,1.387V79.031a1.387,1.387,0,0,0,1.387,1.387h6.933a1.387,1.387,0,0,0,1.387-1.387V76.265H26.6a1.4,1.4,0,0,1,.974.4l9.65,9.508a4.15,4.15,0,0,0,2.912,1.187H70.719a4.165,4.165,0,0,0,4.16-4.16V80.424a4.15,4.15,0,0,0-1.626-3.3ZM20.8,77.644h-4.16V58.233H20.8ZM61.006,20.8h1.549a2.083,2.083,0,0,1,2.066,2.328L62.668,31.89H61.006Zm-11.092,0v5.546a1.387,1.387,0,1,0,2.773,0V17.331a2.081,2.081,0,0,1,2.08-2.08h1.387a2.081,2.081,0,0,1,2.08,2.08V31.89H52.687V30.5a1.387,1.387,0,1,0-2.773,0V31.89H42.706L41.63,27.056A15.231,15.231,0,0,0,45.178,20.8ZM30.5,29.117a12.47,12.47,0,1,1,12.229-9.988.022.022,0,0,0,0,.01A12.5,12.5,0,0,1,30.5,29.117Zm9.706,5.546H65.166a1.387,1.387,0,0,1,0,2.773H40.209a1.387,1.387,0,1,1,0-2.773ZM72.105,83.2a1.388,1.388,0,0,1-1.387,1.387H40.134a1.385,1.385,0,0,1-.969-.393l-9.647-9.5a4.131,4.131,0,0,0-2.92-1.2H23.578V62.4H37.444l5.861-.014h0a1.388,1.388,0,0,1,1.019.447L55.62,75.1a.435.435,0,0,0,.04.04,1.391,1.391,0,0,1,.177,1.747h0a1.358,1.358,0,0,1-.175.215l-1.96,1.96a1.389,1.389,0,0,1-1.962,0l-8.823-8.823a1.387,1.387,0,1,0-1.96,1.96l8.823,8.823a4.16,4.16,0,0,0,5.882,0l1.96-1.96c.007-.005.012-.014.019-.019h13.08a1.387,1.387,0,0,1,1.387,1.387ZM42.982,58.233a9.706,9.706,0,1,1,9.816,9.7L46.37,60.956a4.171,4.171,0,0,0-3.061-1.343H43.3l-.218,0A9.951,9.951,0,0,1,42.982,58.233ZM67.96,76.258H58.835A4.164,4.164,0,0,0,57.642,73.2l-2.511-2.728A12.479,12.479,0,1,0,40.209,58.233a12.77,12.77,0,0,0,.078,1.387l-2.844.007H35.148l6.08-19.418h4.527v2.773a1.387,1.387,0,0,0,2.773,0V40.209H63.979l9.491,29.858a5.547,5.547,0,0,1-5.51,6.191Z"/>
                    <path id="Path_1337211" data-name="Path 1337211" d="M49.914,61.006a1.387,1.387,0,0,0,0,2.773H51.3a1.387,1.387,0,1,0,2.773,0H55.46a1.387,1.387,0,0,0,1.387-1.387v-4.16a1.387,1.387,0,0,0-1.387-1.387H51.3V55.46h4.16a1.387,1.387,0,0,0,0-2.773H54.074a1.387,1.387,0,0,0-2.773,0H49.914a1.387,1.387,0,0,0-1.387,1.387v4.16a1.387,1.387,0,0,0,1.387,1.387h4.16v1.387Z"/>
                    <path id="Path_1337212" data-name="Path 1337212" d="M36.455,11.5,28.94,19.014l-3.214-2.143a1.386,1.386,0,1,0-1.538,2.307l4.16,2.773a1.387,1.387,0,0,0,1.75-.173l8.319-8.319A1.387,1.387,0,0,0,36.455,11.5Z"/>
                  </g>
                </g>
              </g>
            </g>
          </g>
        </g>
      </g>
    </g>
  </g>
</svg>
