<svg xmlns="http://www.w3.org/2000/svg" xmlns:xlink="http://www.w3.org/1999/xlink" width="147" height="127" viewBox="0 0 147 127">
  <defs>
    <clipPath id="clip-path">
      <rect id="Rectangle_462254" data-name="Rectangle 462254" width="103" height="87" rx="12" transform="translate(-0.474 0.488)"/>
    </clipPath>
  </defs>
  <g id="Group_1365976" data-name="Group 1365976" transform="translate(-495 -10290)">
    <g id="Group_1365858" data-name="Group 1365858" transform="translate(0 6180)">
      <g id="Group_1365722" data-name="Group 1365722" transform="translate(-420.051 2045)">
        <g id="Group_1365620" data-name="Group 1365620" transform="translate(0 -12106)">
          <g id="Group_1365598" data-name="Group 1365598" transform="translate(0 8712)">
            <rect id="Rectangle_462254-2" data-name="Rectangle 462254" width="147" height="127" rx="12" transform="translate(915.051 5459)" fill="#85eceb"/>
          </g>
        </g>
      </g>
    </g>
    <g id="Group_1365952" data-name="Group 1365952" transform="translate(22.261 6199.246)">
      <g id="Group_1365722-2" data-name="Group 1365722" transform="translate(495.213 4110.265)">
        <g id="Group_1365620-2" data-name="Group 1365620" transform="translate(0 0)">
          <g id="Group_1365598-2" data-name="Group 1365598" transform="translate(0)">
            <g id="Mask_Group_1099493" data-name="Mask Group 1099493" clip-path="url(#clip-path)">
              <g id="_6" data-name="6" transform="translate(7.526 0.488)">
                <g id="Group_1365961" data-name="Group 1365961">
                  <path id="Path_1336895" data-name="Path 1336895" d="M67.235,52.874A3.262,3.262,0,0,0,63.962,56.1V44.542a3.466,3.466,0,0,0-6.932,0V63.665l-.723.412a2.891,2.891,0,0,0-1.556,2.214A6.072,6.072,0,0,0,55,68.674l1.28,4.428,1.829,6.33V83.02A2.3,2.3,0,0,0,60.414,85.3H77.744a2.3,2.3,0,0,0,2.311-2.281V79.432l2.1-2.743c1.186-1.552,1.451-2.574,1.451-4.977v-11.3a3.274,3.274,0,0,0-6.547,0V58.3a3.253,3.253,0,0,0-2.524-3.145,3.3,3.3,0,0,0-.75-.086A3.262,3.262,0,0,0,70.508,58.3V56.1a3.269,3.269,0,0,0-3.273-3.231Z" fill="#ffdcd5" fill-rule="evenodd"/>
                  <path id="Path_1336896" data-name="Path 1336896" d="M54.751,66.291a30.587,30.587,0,1,1,13.28-13.319A3.252,3.252,0,0,1,70.508,56.1v2.2a3.277,3.277,0,0,1,4.023-3.145A37.384,37.384,0,1,0,56.275,73.1L55,68.674a6.074,6.074,0,0,1-.244-2.383Z" fill="#9de3d1" fill-rule="evenodd"/>
                  <path id="Path_1336897" data-name="Path 1336897" d="M40.781,69.668a30.583,30.583,0,0,0,13.97-3.377,2.89,2.89,0,0,1,1.556-2.214l.723-.412V44.542a3.466,3.466,0,0,1,6.932,0V56.1a3.262,3.262,0,0,1,3.273-3.231,3.3,3.3,0,0,1,.8.1,30.586,30.586,0,1,0-27.25,16.7Z" fill="#b8ecbc" fill-rule="evenodd"/>
                  <path id="Path_1336898" data-name="Path 1336898" d="M26.839,41.167a4.248,4.248,0,1,1,6.007-6.007l4.9,4.9L48.716,29.092A4.248,4.248,0,0,1,54.723,35.1L40.751,49.072a4.247,4.247,0,0,1-6.007,0Z" fill="#fff" fill-rule="evenodd"/>
                </g>
                <g id="Group_1365962" data-name="Group 1365962">
                  <path id="Path_1336899" data-name="Path 1336899" d="M80.328,55.483a4.978,4.978,0,0,0-2.164.492,4.975,4.975,0,0,0-1.413-1.622,39.356,39.356,0,0,0,3.112-15.271,38.921,38.921,0,0,0-6.4-21.435,1.7,1.7,0,0,0-2.84,1.867,35.527,35.527,0,0,1,5.843,19.568,35.925,35.925,0,0,1-2.993,14.3,4.97,4.97,0,0,0-1.818.464,4.971,4.971,0,0,0-1.38-1.637A32.282,32.282,0,1,0,13,55.538,1.7,1.7,0,0,0,15.924,53.8a28.891,28.891,0,1,1,51.082-2.619,4.988,4.988,0,0,0-1.346.244V44.542a5.165,5.165,0,0,0-10.33,0V62.68a4.529,4.529,0,0,0-2.038,2.436A28.889,28.889,0,0,1,26.06,63.939a1.7,1.7,0,1,0-1.734,2.922,32.269,32.269,0,0,0,28.961,1.979c.023.093.042.184.068.278l.007.027.863,2.987A35.682,35.682,0,1,1,40.781,3.4a35.523,35.523,0,0,1,19.57,5.843A1.7,1.7,0,1,0,62.218,6.4,39.083,39.083,0,0,0,13.146,66.717a39.075,39.075,0,0,0,42.028,8.7l1.23,4.257V83.02A4,4,0,0,0,60.414,87H77.743a4,4,0,0,0,4.01-3.98V80.007L83.5,77.721c1.54-2.015,1.8-3.483,1.8-6.009v-11.3a4.957,4.957,0,0,0-4.972-4.93ZM81.9,71.712c0,2.192-.235,2.811-1.1,3.945L78.7,78.4a1.7,1.7,0,0,0-.349,1.032V83.02a.6.6,0,0,1-.611.581H60.414a.6.6,0,0,1-.611-.581V79.432a1.7,1.7,0,0,0-.067-.472l-3.1-10.744c-.554-2.052.065-2.405.517-2.663l.723-.412a1.7,1.7,0,0,0,.858-1.476V44.542a1.767,1.767,0,0,1,3.533,0v15.1a1.7,1.7,0,0,0,3.4,0V56.1a1.575,1.575,0,0,1,3.148,0v2.2a1.7,1.7,0,1,0,3.4,0,1.575,1.575,0,0,1,3.148,0v2.112a1.7,1.7,0,0,0,3.4,0,1.575,1.575,0,0,1,3.148,0Z"/>
                  <path id="Path_1336900" data-name="Path 1336900" d="M67.216,14.348a1.7,1.7,0,0,0,1.2-2.9h0a1.7,1.7,0,1,0-1.2,2.9Z"/>
                  <path id="Path_1336901" data-name="Path 1336901" d="M19.155,62.41a1.7,1.7,0,0,0,1.3-2.787h0a1.7,1.7,0,1,0-1.3,2.788Z"/>
                  <path id="Path_1336902" data-name="Path 1336902" d="M33.542,50.273a5.947,5.947,0,0,0,8.41,0L55.925,36.3a5.947,5.947,0,1,0-8.41-8.41l-9.767,9.767-3.7-3.7a5.947,5.947,0,0,0-8.41,8.41Zm-5.5-13.912a2.551,2.551,0,0,1,3.6,0l4.9,4.9a1.7,1.7,0,0,0,2.4,0L49.918,30.294a2.548,2.548,0,1,1,3.6,3.6L39.549,47.87a2.551,2.551,0,0,1-3.6,0l-7.9-7.9a2.551,2.551,0,0,1,0-3.6Z"/>
                </g>
              </g>
            </g>
          </g>
        </g>
      </g>
    </g>
  </g>
</svg>
