<svg xmlns="http://www.w3.org/2000/svg" width="147" height="127" viewBox="0 0 147 127">
  <g id="Group_1365682" data-name="Group 1365682" transform="translate(-915.051 -15704)">
    <g id="Group_1365663" data-name="Group 1365663">
      <g id="Group_1365604" data-name="Group 1365604" transform="translate(0 10245)">
        <rect id="Rectangle_462254" data-name="Rectangle 462254" width="147" height="127" rx="12" transform="translate(915.051 5459)" fill="#85eceb"/>
      </g>
    </g>
    <g id="Analysis-report-document-develop-infromation" transform="translate(941.548 15727.273)">
      <path id="Path_1336403" data-name="Path 1336403" d="M71.421,17.017V74.357a2.556,2.556,0,0,1-2.548,2.548H25.548A2.556,2.556,0,0,1,23,74.357V5.548A2.556,2.556,0,0,1,25.548,3H57.4V14.468a2.556,2.556,0,0,0,2.548,2.548Z" transform="translate(5.756 0.274)" fill="#fee9ab"/>
      <path id="Path_1336404" data-name="Path 1336404" d="M62.645,14V71.341A2.556,2.556,0,0,1,60.1,73.889H55a2.556,2.556,0,0,0,2.548-2.548V14Z" transform="translate(14.532 3.291)" fill="#ffd422"/>
      <path id="Path_1336405" data-name="Path 1336405" d="M64.017,17.017H52.548A2.556,2.556,0,0,1,50,14.468V3Z" transform="translate(13.161 0.274)" fill="#ff7956"/>
      <circle id="Ellipse_12835" data-name="Ellipse 12835" cx="10.194" cy="10.194" r="10.194" transform="translate(51.693 51.695)" fill="#bdfdff"/>
      <path id="Path_1336406" data-name="Path 1336406" d="M52.485,33.485H27V8A25.477,25.477,0,0,1,52.485,33.485Z" transform="translate(6.853 1.645)" fill="#ff3051"/>
      <path id="Path_1336407" data-name="Path 1336407" d="M59.742,51.194A10.194,10.194,0,0,1,49.548,61.388,10.5,10.5,0,0,1,47,61.069a10.2,10.2,0,0,0,0-19.751A10.5,10.5,0,0,1,49.548,41,10.194,10.194,0,0,1,59.742,51.194Z" transform="translate(12.338 10.695)" fill="#46f8ff"/>
      <path id="Path_1336408" data-name="Path 1336408" d="M52.486,33.485h-5.1A25.486,25.486,0,0,0,27,8.509L27,8A25.477,25.477,0,0,1,52.486,33.485Z" transform="translate(6.852 1.645)" fill="#cd2a00"/>
      <path id="Path_1336409" data-name="Path 1336409" d="M26.878,32H52.362A25.485,25.485,0,0,1,8.86,50.018Z" transform="translate(1.879 8.227)" fill="#5eac24"/>
      <path id="Path_1336410" data-name="Path 1336410" d="M28.484,12V37.485L10.466,55.5A25.485,25.485,0,0,1,28.484,12Z" transform="translate(0.273 2.742)" fill="#ffcd00"/>
      <path id="Path_1336411" data-name="Path 1336411" d="M78.082,16.386,64.066,2.37a1.316,1.316,0,0,0-.9-.37H31.3a3.834,3.834,0,0,0-3.823,3.823v7.709a26.725,26.725,0,0,0,0,53.39v7.709A3.834,3.834,0,0,0,31.3,78.454H74.629a3.834,3.834,0,0,0,3.823-3.823V17.291A1.316,1.316,0,0,0,78.082,16.386ZM64.435,6.345l9.671,9.671h-8.4a1.274,1.274,0,0,1-1.274-1.274ZM4.546,40.227A24.24,24.24,0,0,1,27.482,16.055V39.7L10.79,56.4a24.056,24.056,0,0,1-6.244-16.17Zm8.04,17.967L29.279,41.5h23.65A24.163,24.163,0,0,1,12.586,58.194ZM75.9,74.631a1.274,1.274,0,0,1-1.274,1.274H31.3a1.274,1.274,0,0,1-1.274-1.274V66.922a26.777,26.777,0,0,0,25.485-26.7,1.274,1.274,0,0,0-1.274-1.274H30.031V5.823A1.274,1.274,0,0,1,31.3,4.548H61.887V14.742a3.834,3.834,0,0,0,3.823,3.823H75.9Z"/>
      <path id="Path_1336412" data-name="Path 1336412" d="M27.274,7A1.274,1.274,0,0,0,26,8.274V33.759a1.274,1.274,0,0,0,1.274,1.274H52.759a1.274,1.274,0,0,0,1.274-1.274A26.788,26.788,0,0,0,27.274,7Zm1.274,25.485V9.587a24.232,24.232,0,0,1,22.9,22.9Z" transform="translate(6.579 1.371)"/>
      <path id="Path_1336413" data-name="Path 1336413" d="M51.468,40A11.468,11.468,0,1,0,62.936,51.468,11.468,11.468,0,0,0,51.468,40Zm0,20.388a8.92,8.92,0,1,1,8.92-8.92A8.92,8.92,0,0,1,51.468,60.388Z" transform="translate(10.418 10.421)"/>
      <path id="Path_1336414" data-name="Path 1336414" d="M48.017,52.038l-2.922-2.922-1.8,1.8,3.823,3.823a1.274,1.274,0,0,0,1.8,0l7.645-7.645-1.8-1.8Z" transform="translate(11.322 11.872)"/>
      <path id="Path_1336415" data-name="Path 1336415" d="M50,19H60.194v2.548H50Z" transform="translate(13.161 4.662)"/>
      <path id="Path_1336416" data-name="Path 1336416" d="M50,25H60.194v2.548H50Z" transform="translate(13.161 6.307)"/>
      <path id="Path_1336417" data-name="Path 1336417" d="M50,31H60.194v2.548H50Z" transform="translate(13.161 7.953)"/>
    </g>
  </g>
</svg>
